<?xml version="1.0" standalone="no"?><!DOCTYPE svg PUBLIC "-//W3C//DTD SVG 1.1//EN" "http://www.w3.org/Graphics/SVG/1.1/DTD/svg11.dtd"><svg class="icon" width="128px" height="128.00px" viewBox="0 0 1024 1024" version="1.1" xmlns="http://www.w3.org/2000/svg"><path fill="#1989fa" d="M915.668271 208.112665c0-34.846201-20.13609-64.91306-49.354011-79.475058l0.238425-0.541875-4.248303-1.401651c-5.043054-2.203627-10.32092-3.966528-15.797474-5.212841L679.981373 75.826431l0 62.149496 158.646666 43.053807 0 0.010838c10.400395 4.620391 17.748225 15.038849 17.748225 27.068482l43.378932 202.300148c-0.003613 16.263487-13.39516 29.651422-29.647809 29.651422l-39.007804 0 0-57.207592-59.295618 0 0 490.411684c0 16.259874-13.387935 29.647809-29.651422 29.647809l-26.797545 0-179.862894 0L468.938968 902.912524l0 0.003613L276.999478 902.916136l0-0.003613c-16.256262 0-26.028082-13.387935-26.028082-29.647809L250.971396 379.24414 191.67939 379.24414l0 57.207592L151.190461 436.451732c-16.256262 0-29.647809-13.387935-29.647809-29.647809l43.378932-202.300148c0-11.693671 6.950455-21.859254 16.892062-26.66027l156.713977-39.842292L338.527623 75.826431 176.319029 117.489424c-6.62533 1.383589-12.979722 3.504128-18.976476 6.274917l-1.495576 0.494913 0.075863 0.169788c-29.748959 14.381373-50.296874 44.831158-50.296874 80.071121l-43.375319 202.300148c0 49.093911 39.845904 88.943428 88.939815 88.943428L191.67939 495.743738l0 377.520977c0 49.093911 36.229789 88.943428 85.3237 88.943428l465.156678 0c49.097523 0 88.943428-39.849517 88.943428-88.943428L831.103196 499.356241l39.007804 0c49.093911 0 88.939815-39.849517 88.939815-88.943428L915.668271 208.112665z"  /><path fill="#1989fa" d="M678.655585 75.934806c-31.696098 62.890059-96.09257 106.063078-170.264475 106.063078-74.168292 0-138.557539-43.169407-170.25725-106.055853l-57.211204 14.10321c38.845241 88.13784 126.155817 149.752685 227.468454 149.752685 100.886361 0 187.8971-61.094645 226.984379-148.640034L678.655585 75.934806z"  /></svg>