<?xml version="1.0" standalone="no"?><!DOCTYPE svg PUBLIC "-//W3C//DTD SVG 1.1//EN" "http://www.w3.org/Graphics/SVG/1.1/DTD/svg11.dtd"><svg class="icon" width="200px" height="195.05px" viewBox="0 0 1050 1024" version="1.1" xmlns="http://www.w3.org/2000/svg"><path fill="#1989fa" d="M938.233436 1015.473231H112.436513c-42.292513 0-76.635897-33.188103-76.635898-73.69518V585.32759c0-147.725128 110.486974-271.228718 257.181539-300.425846 5.52041-153.48841 107.644718-276.151795 232.362667-276.151795 124.829538 0 226.921026 122.663385 232.402051 276.151795 146.648615 29.190564 257.142154 152.700718 257.142154 300.425846v356.457025c0 40.507077-34.304 73.688615-76.65559 73.688616z m-864.951795-101.74359v28.04841c0 19.928615 17.545846 36.023795 39.154872 36.023795h825.790359c21.622154 0 39.213949-16.095179 39.213949-36.023795v-28.04841H73.281641z m744.973128-37.376h159.186052v-149.142974c-83.790769 1.503179-152.260923 66.638769-159.186052 149.142974z m-551.115487 0H780.471795c7.194256-103.082667 92.475077-185.166769 196.97559-186.591179v-104.434872c0-148.493128-128.282256-269.351385-286.037334-269.351385H359.364923c-157.715692 0-286.083282 120.858256-286.083282 269.351385v104.434872c103.122051 3.196718 186.840615 84.434051 193.857641 186.591179z m-193.857641 0h156.232205c-6.905436-81.513026-73.793641-145.92-156.232205-149.142974v149.142974z m286.083282-597.897846h332.038564c9.754256 0 19.213128 0.361026 28.678564 1.214359-7.463385-130.290872-91.825231-233.399795-194.73723-233.399795-102.76759 0-187.227897 103.108923-194.67159 233.399795a321.024 321.024 0 0 1 28.691692-1.214359zM525.344821 607.179487C371.784205 607.179487 246.810256 499.003077 246.810256 365.71241a18.694564 18.694564 0 0 1 18.688-18.628923c10.502564 0 18.766769 8.408615 18.76677 18.628923 0 112.620308 108.130462 203.992615 241.079795 203.992616 133.014974 0 241.092923-91.372308 241.092923-203.992616 0-10.220308 8.480821-18.628923 18.786461-18.628923a18.701128 18.701128 0 0 1 18.79959 18.628923c0 133.290667-125.000205 241.467077-278.678974 241.467077z"  /><path fill="#1989fa" d="M525.344821 516.955897a17.637744 17.637744 0 0 1 17.618051 17.690257c0 9.609846-7.876923 17.434256-17.618051 17.434256a17.493333 17.493333 0 0 1-17.545847-17.434256 17.591795 17.591795 0 0 1 17.545847-17.690257z"  /><path fill="#1989fa" d="M525.344821 555.88759c-11.769436 0-21.398974-9.458872-21.398975-21.234872s9.629538-21.320205 21.398975-21.320205c11.749744 0 21.353026 9.544205 21.353025 21.320205s-9.603282 21.234872-21.353025 21.234872z m0-35.196718a13.863385 13.863385 0 0 0 0 27.720205c7.581538 0 13.843692-6.25559 13.843692-13.764923a13.902769 13.902769 0 0 0-13.843692-13.955282z"  /></svg>