<?xml version="1.0" standalone="no"?><!DOCTYPE svg PUBLIC "-//W3C//DTD SVG 1.1//EN" "http://www.w3.org/Graphics/SVG/1.1/DTD/svg11.dtd"><svg class="icon" width="128px" height="128.00px" viewBox="0 0 1024 1024" version="1.1" xmlns="http://www.w3.org/2000/svg"><path fill="#515151" d="M737.1 702.5h-107L390.4 460v242.5l-103.5 0.1V321.5h129.9l216 207.8-2.7-207.8h107.1v381zM512 959.5c-60.4 0-119-11.8-174.2-35.2-53.3-22.5-101.1-54.8-142.2-95.9-41.1-41.1-73.4-88.9-95.9-142.2C76.3 631 64.5 572.4 64.5 512s11.8-119 35.2-174.2c22.5-53.3 54.8-101.1 95.9-142.2 41.1-41.1 88.9-73.4 142.2-95.9C393 76.3 451.6 64.5 512 64.5s119 11.8 174.2 35.2c53.3 22.5 101.1 54.8 142.2 95.9 41.1 41.1 73.4 88.9 95.9 142.2 23.3 55.2 35.2 113.8 35.2 174.2s-11.8 119-35.2 174.2c-22.5 53.3-54.8 101.1-95.9 142.2-41.1 41.1-88.9 73.4-142.2 95.9-55.2 23.4-113.8 35.2-174.2 35.2z m0-849.8c-221.8 0-402.3 180.5-402.3 402.3S290.2 914.3 512 914.3 914.3 733.8 914.3 512 733.8 109.7 512 109.7z" /></svg>